<svg xmlns="http://www.w3.org/2000/svg" height="48" viewBox="0 -1060 960 960" width="48"><path d="M480-116q-75.588 0-142.069-28.925T222.65-222.65q-48.8-48.8-77.725-115.281Q116-404.412 116-480h35q0 130.096 87.5 223.548T455-153l-63-64 25-22 118 118q-12.631 4.667-27.262 4.833Q493.107-116 480-116Zm40-253v-223h120q16.7 0 28.85 12.15Q681-567.7 681-551v141q0 16.7-12.15 28.85Q656.7-369 640-369H520Zm-240 0v-32h127v-63h-85v-32h85v-63H280v-33h134.745q11.155 0 18.705 7.55Q441-576.9 441-567v172.672q0 11.228-7.547 18.278-7.547 7.05-18.703 7.05H280Zm273-32h82q6 0 9-3t3-9v-134q0-6-3-9t-9-3h-82v158Zm256-79q0-130-87-224T506-808l64 64-27 23-118-119q12.716-3.333 27.319-3.667Q466.921-844 480-844q74.85 0 141.7 28.925t115.65 77.725q48.8 48.8 77.725 115.65Q844-554.85 844-480h-35Z"/></svg>