<svg xmlns="http://www.w3.org/2000/svg" height="48" viewBox="0 -1060 960 960" width="48"><path d="M196.649-177q-6.281 0-11.465-5.038Q180-187.075 180-195v-41h-26q-32.333 0-55.167-22.708Q76-281.417 76-315v-215q0-38 25.208-57 25.209-19 50.792-19v-67q0-32.833 22.083-54.917Q196.167-750 229-750h503q32.833 0 54.917 22.083Q809-705.833 809-673v67q29 0 52.5 20.208Q885-565.583 885-530v215q0 33.583-22.833 56.292Q839.333-236 807-236h-26v41q0 7.925-4.025 12.962Q772.95-177 764.719-177q-6.28 0-11.5-5.038Q748-187.075 748-195v-41H215v41q0 8-5.06 13t-13.291 5Zm-43.051-94h653.21Q825-271 837.5-283.787 850-296.575 850-315v-214.35Q850-547 838.144-559 826.287-571 809-571q-18.137 0-30.069 12Q767-547 767-530v147H194v-147q0-17-11.931-29T152-571q-17.288 0-29.144 12Q111-547 111-529.664v214.821q0 18.693 12.385 31.268Q135.769-271 153.598-271ZM229-418h503v-112q0-22.521 11.5-40.261Q755-588 774-596.845V-673q0-18.425-12.287-30.213Q749.425-715 732.258-715H228.742q-17.167 0-29.454 11.787Q187-691.425 187-673v76.155q19 8.845 30.5 26.584Q229-552.521 229-530v112Zm252 0Zm0 147Zm0-112Z"/></svg>