<svg xmlns="http://www.w3.org/2000/svg" height="48" viewBox="0 -1060 960 960" width="48"><path d="M479.887-118q-19.467 0-33.677-14.204t-14.21-33.5Q432-185 446.323-199.5q14.322-14.5 33.79-14.5 19.467 0 33.677 14.613 14.21 14.612 14.21 34Q528-146 513.677-132q-14.322 14-33.79 14ZM245-324l-35-34q56-57 123.666-87.5t146.5-30.5q78.834 0 146.458 30.615Q694.248-414.769 750-360l-35 36q-48.55-48.936-108.775-74.968Q546-425 479.798-425q-66.201 0-125.725 26.032Q294.55-372.936 245-324ZM47-522l-36-36q90-90 209-144t260-54q141 0 260 54.5T949-558l-36 36q-85-83-195.5-133T480-705q-127 0-237.5 49.5T47-522Z"/></svg>